Coordinates
version=1
nRows=11
nColumns=40
inDegrees=yes

Units are S.I. units (second, meters, Newtons, ...)
Angles are in degrees.

endheader
time	pelvis_tilt	pelvis_list	pelvis_rotation	pelvis_tx	pelvis_ty	pelvis_tz	hip_flexion_r	hip_adduction_r	hip_rotation_r	knee_angle_r	knee_angle_r_beta	ankle_angle_r	subtalar_angle_r	mtp_angle_r	hip_flexion_l	hip_adduction_l	hip_rotation_l	knee_angle_l	knee_angle_l_beta	ankle_angle_l	subtalar_angle_l	mtp_angle_l	lumbar_extension	lumbar_bending	lumbar_rotation	arm_flex_r	arm_add_r	arm_rot_r	elbow_flex_r	pro_sup_r	wrist_flex_r	wrist_dev_r	arm_flex_l	arm_add_l	arm_rot_l	elbow_flex_l	pro_sup_l	wrist_flex_l	wrist_dev_l
      5.04500000	     -6.59066821	     -4.69335179	      6.36665163	      0.82496319	      0.91923766	      0.46089921	      1.40195238	      4.19003484	    -18.30679494	      9.25698584	      9.25698584	     16.39003517	      2.54495863	     -3.35919318	     32.69735631	     -4.82982334	     -2.96217607	     16.51973575	     16.51973575	      3.96609018	     -5.73468444	      6.18527798	     -7.89004594	      5.68010407	      4.65489174	     39.83762906	    -17.83659937	     -5.91897061	    115.71055363	     44.38442130	      0.00000000	      0.00000000	    -10.10102772	    -11.63385238	     11.15519775	     26.40221087	     45.45878354	      0.00000000	      0.00000000
      5.05721429	     -6.58911105	     -4.68528994	      6.09025623	      0.82606359	      0.91779182	      0.45961149	      0.98755756	      4.07753387	    -17.95561700	      9.67679799	      9.67679799	     17.24630336	      2.54362952	     -2.48003103	     32.28753502	     -4.77097895	     -3.01663308	     16.94428190	     16.94428190	      2.70489766	     -7.16605032	      4.75479138	     -7.74970156	      5.55914850	      4.57551023	     39.19989856	    -17.37703177	     -5.51962170	    114.22445613	     44.43252479	      0.00000000	      0.00000000	    -10.39425009	    -11.62502334	     10.92147314	     27.05607740	     45.48896456	      0.00000000	      0.00000000
      5.06942857	     -6.53792271	     -4.67525104	      5.84699945	      0.82727989	      0.91640183	      0.45831530	      0.52800965	      3.95327916	    -17.68303740	     10.14135116	     10.14135116	     18.23866351	      2.65515080	     -1.36143858	     31.86115893	     -4.73477503	     -2.98280650	     17.43511653	     17.43511653	      1.37471530	     -8.40520319	      2.94079838	     -7.62336725	      5.39189260	      4.36891266	     38.39063835	    -16.89292541	     -4.82152993	    112.91225892	     44.48067970	      0.00000000	      0.00000000	    -10.72893731	    -11.58095407	     10.41405517	     27.67430274	     45.56272769	      0.00000000	      0.00000000
      5.08164286	     -6.42393538	     -4.57846138	      5.59100750	      0.82864250	      0.91526883	      0.45690191	     -0.04915107	      3.74036031	    -17.37721855	     10.49411846	     10.49411846	     18.70873783	      2.63365550	     -1.46810170	     31.54036240	     -4.68438120	     -3.09996209	     18.35236193	     18.35236193	      1.09675916	     -9.00685057	      2.84472257	     -7.60997142	      5.15561021	      4.54829964	     37.11518235	    -16.60915820	     -4.51554809	    112.28983806	     44.48673156	      0.00000000	      0.00000000	    -10.51481185	    -11.54923588	     10.35779933	     27.80006796	     45.57480867	      0.00000000	      0.00000000
      5.09385714	     -6.47572899	     -4.49736879	      5.31117741	      0.82973619	      0.91403074	      0.45534303	     -0.15968307	      3.42742673	    -16.99857629	     11.37934449	     11.37934449	     19.34843981	      2.34863526	     -1.29143045	     31.47561029	     -4.55744156	     -2.81028712	     19.31410188	     19.31410188	      0.65065165	    -10.23938466	      2.48886142	     -7.37791192	      4.91819701	      4.74123261	     35.86702960	    -16.59655842	     -4.16649332	    110.51609018	     44.53539721	      0.00000000	      0.00000000	    -10.18050540	    -11.47878193	     10.14481086	     28.04111819	     45.61176233	      0.00000000	      0.00000000
      5.10607143	     -6.26151050	     -4.33347811	      5.08936590	      0.83108418	      0.91355522	      0.45364150	     -0.77054957	      3.09352481	    -16.70827738	     11.85905094	     11.85905094	     19.67206733	      2.28538057	     -1.36928851	     31.08539693	     -4.41719822	     -2.75428957	     20.24708778	     20.24708778	      0.69034983	    -10.82163177	      2.29940188	     -7.55826645	      4.62268782	      4.73860321	     34.40919039	    -16.17380956	     -3.75393533	    109.82377474	     44.53835609	      0.00000000	      0.00000000	     -9.73711278	    -11.33983603	     10.12040264	     28.22782259	     45.62270838	      0.00000000	      0.00000000
      5.11828571	     -6.32801277	     -4.20890818	      4.83109714	      0.83207345	      0.91279972	      0.45174112	     -0.60339207	      2.61214818	    -16.40133781	     13.22539296	     13.22539296	     20.14883081	      1.88886769	     -1.37609684	     31.17328784	     -4.19956975	     -2.28033361	     21.42632946	     21.42632946	      0.74045035	    -12.12580714	      2.07310242	     -7.28498602	      4.36707110	      5.04239057	     32.90996035	    -16.33427007	     -3.26319941	    107.46176450	     44.59564903	      0.00000000	      0.00000000	     -9.15327116	    -11.31186517	      9.95302529	     28.41394406	     45.65607444	      0.00000000	      0.00000000
      5.13050000	     -6.09214817	     -4.04495239	      4.60699114	      0.83332210	      0.91298042	      0.44974381	     -0.97367908	      2.16275551	    -16.14403701	     14.17695111	     14.17695111	     20.32276690	      1.70159187	     -1.45761370	     30.78180576	     -4.00690047	     -2.03536755	     22.37170764	     22.37170764	      1.13629603	    -12.91636457	      1.88086559	     -7.47094875	      4.07594360	      5.05991122	     31.31183856	    -15.99522254	     -2.71667354	    106.09362368	     44.61626395	      0.00000000	      0.00000000	     -8.52730354	    -11.24001837	      9.88518788	     28.58226943	     45.67585845	      0.00000000	      0.00000000
      5.14271429	     -6.11264998	     -3.84282980	      4.42458368	      0.83410624	      0.91304886	      0.44736443	     -0.60500500	      1.48522602	    -15.86778677	     15.97388904	     15.97388904	     20.49222656	      1.29376078	     -1.71870793	     30.69864710	     -3.64723144	     -1.54222563	     23.30288271	     23.30288271	      1.57143772	    -13.91450411	      2.03296236	     -7.33649682	      3.80864089	      5.26649400	     29.85237116	    -16.09697880	     -2.01342828	    103.12362928	     44.68602858	      0.00000000	      0.00000000	     -7.63180986	    -10.97997315	      9.75660096	     28.69273731	     45.70810210	      0.00000000	      0.00000000
      5.15492857	     -5.97490260	     -3.68410479	      4.22806857	      0.83519186	      0.91366415	      0.44493432	     -0.45453951	      0.85955254	    -15.73244138	     17.68217302	     17.68217302	     20.44409908	      0.92959475	     -2.15174668	     30.32262231	     -3.39549521	     -1.34894984	     24.07467580	     24.07467580	      2.34522414	    -14.62732242	      2.32228389	     -7.29074648	      3.61834404	      5.24816023	     28.42362744	    -15.90989206	     -1.17063571	    100.29469872	     44.74746715	      0.00000000	      0.00000000	     -6.74260570	    -10.76576306	      9.60889368	     28.72674545	     45.74223509	      0.00000000	      0.00000000
      5.16714286	     -5.83863154	     -3.55407509	      4.03157895	      0.83613684	      0.91457661	      0.44245991	     -0.15298764	      0.21347162	    -15.56336206	     19.60744559	     19.60744559	     20.13223315	      0.55101262	     -2.81929067	     29.88556335	     -3.18975978	     -1.24729293	     24.71998321	     24.71998321	      3.21663916	    -15.03117977	      2.61623886	     -7.31366350	      3.46974521	      5.31218236	     26.92839476	    -15.77189452	     -0.34933524	     97.42682529	     44.80995575	      0.00000000	      0.00000000	     -5.78676297	    -10.54327092	      9.44973359	     28.84285866	     45.77874155	      0.00000000	      0.00000000
